'THE CURE - TRILOGY - LIVE IN BERLIN'
Recorded in the Tempodrom Berlin November 2002

Format                           : Matroska
File size                        : 7.05 GiB
Duration                         : 3h 16mn
Overall bit rate                 : 5 140 Kbps

Video
ID                               : 1
Format                           : AVC
Format/Info                      : Advanced Video Codec
Format profile                   : High@L4.0
Format settings, CABAC           : Yes
Format settings, ReFrames        : 4 frames
Muxing mode                      : Container profile=Unknown@4.0
Codec ID                         : V_MPEG4/ISO/AVC
Duration                         : 3h 16mn
Bit rate                         : 4 500 Kbps
Width                            : 1 912 pixels
Height                           : 1 080 pixels
Display aspect ratio             : 16:9
Frame rate mode                  : Variable
Frame rate                       : 29.862 fps
Stream size                      : 6.03 GiB (86%)
Writing library                  : x264 core 88
Encoding settings                : cabac=1 / ref=4 / deblock=1:-1:-1 / analyse=0x3:0x133 / me=umh / subme=9 / psy=1 / psy_rd=1.00:0.00 / mixed_ref=1 / me_range=24 / chroma_me=1 / trellis=2 / 8x8dct=1 / cqm=0 / deadzone=21,11 / fast_pskip=1 / decimate=1 / mbaff=0 / constrained_intra=0 / bframes=5 / b_pyramid=2 / b_adapt=2 / b_bias=0 / direct=3 / wpredb=1 / wpredp=2 / keyint=300 / rc=2pass / mbtree=1 / bitrate=4500 
Audio
ID                               : 2
Format                           : AC-3
Format/Info                      : Audio Coding 3
Mode extension                   : CM (complete main)
Codec ID                         : A_AC3
Duration                         : 3h 16mn
Bit rate mode                    : Constant
Bit rate                         : 640 Kbps
Channel(s)                       : 6 channels
Channel positions                : Front: L C R, Side: L R, LFE
Sampling rate                    : 48.0 KHz
Stream size                      : 899 MiB (12%)

The source (torrent) hash: C9611829BCE354F7336E6C45FC26062D3A804CD1
The source has an annoying 2px bar on the left!
The source is 41 GB, lol, good luck with it if my rip is not good enough for you.